<?xml version="1.0" encoding="UTF-8"?>
<svg id="Laag_1" xmlns="http://www.w3.org/2000/svg" version="1.1" viewBox="0 0 100 36">
  <!-- Generator: Adobe Illustrator 29.7.1, SVG Export Plug-In . SVG Version: 2.1.1 Build 8)  -->
  <defs>
    <style>
      .st0 {
        fill: #fff;
      }
    </style>
  </defs>
  <g>
    <path class="st0" d="M7.01,13.56H.73c-.5,0-.86.5-.69.99l7.77,20.75c.11.28.37.49.69.49h6.37c.52,0,.88-.52.69-.99L7.68,14.05c-.11-.28-.37-.47-.69-.47l.02-.02Z"/>
    <path class="st0" d="M48.74,13.56h-6.27c-.5,0-.86.5-.69.99l7.77,20.75c.11.28.37.49.69.49h6.37c.52,0,.88-.52.69-.99l-7.88-20.75c-.11-.28-.37-.47-.69-.47l.02-.02Z"/>
    <path class="st0" d="M92.99,35.78h6.27c.5,0,.86-.5.69-.99l-7.77-20.75c-.11-.28-.37-.49-.69-.49h-6.37c-.52,0-.88.52-.69.99l7.88,20.75c.11.28.37.47.69.47l-.02.02Z"/>
    <path class="st0" d="M24.99,13.56h6.27c.5,0,.86.5.69.99l-7.77,20.75c-.11.28-.37.49-.69.49h-6.37c-.52,0-.88-.52-.69-.99l7.88-20.75c.11-.28.37-.47.69-.47l-.02-.02Z"/>
    <path class="st0" d="M66.61,13.56h6.27c.5,0,.86.5.69.99l-7.77,20.75c-.11.28-.37.49-.69.49h-6.37c-.52,0-.88-.52-.69-.99l7.88-20.75c.11-.28.37-.47.69-.47l-.02-.02Z"/>
    <path class="st0" d="M75.11,35.78h-6.27c-.5,0-.86-.5-.69-.99l7.77-20.75c.11-.28.37-.49.69-.49h6.37c.52,0,.88.52.69.99l-7.88,20.75c-.11.28-.37.47-.69.47l.02.02Z"/>
    <path class="st0" d="M34.97,13.56h3.82c.84,0,1.53.68,1.53,1.53v19.17c0,.84-.68,1.53-1.53,1.53h-3.82c-.84,0-1.53-.68-1.53-1.53V15.09c0-.84.68-1.53,1.53-1.53"/>
    <path class="st0" d="M28.64,3.96h.99c.3,0,.52-.05.67-.17.15-.12.22-.27.22-.49s-.07-.4-.25-.52c-.15-.12-.37-.17-.67-.17h-.99v1.36h.02ZM28.64,1.98h.94c.25,0,.45-.05.59-.17s.2-.27.2-.47-.07-.37-.2-.47c-.15-.12-.35-.17-.59-.17h-.94v1.29ZM29.55.07c.49,0,.87.1,1.14.3.27.2.42.49.42.87s-.07.49-.22.67c-.15.17-.35.3-.62.35.67.12,1.01.47,1.01,1.06s-.15.69-.45.92c-.3.22-.69.35-1.24.35h-1.71V.07h1.66Z"/>
    <path class="st0" d="M32.74,3.17c.12.25.3.45.49.59.22.15.47.2.74.2s.52-.07.74-.2c.22-.15.4-.35.49-.59.12-.25.17-.54.17-.84s-.05-.59-.17-.84c-.12-.25-.3-.45-.49-.59-.22-.15-.47-.2-.74-.2s-.52.07-.74.2c-.22.15-.4.35-.49.59-.12.25-.17.54-.17.84s.05.59.17.84M35.89,3.49c-.17.35-.45.62-.77.82-.32.2-.72.3-1.14.3s-.79-.1-1.14-.3c-.32-.2-.59-.47-.77-.82-.17-.35-.27-.74-.27-1.19s.1-.84.27-1.19.45-.62.77-.82c.32-.2.72-.3,1.14-.3s.79.1,1.14.3c.32.2.59.47.77.82.17.35.27.74.27,1.19s-.1.84-.27,1.19"/>
    <path class="st0" d="M37.54.07v2.62c0,.42.07.74.25.96.17.22.42.32.77.32s.62-.1.79-.32c.17-.22.25-.52.25-.96V.07h.74v2.57c0,.64-.15,1.14-.45,1.46-.3.35-.74.49-1.34.49s-1.01-.17-1.31-.49c-.3-.35-.45-.82-.45-1.46V.07h.74Z"/>
  </g>
  <polygon class="st0" points="46.23 .07 45.26 3.64 44.3 .07 43.6 .07 42.59 3.64 41.63 .07 40.86 .07 42.15 4.58 43.01 4.58 43.9 1.26 44.82 4.58 45.68 4.58 46.97 .07 46.23 .07"/>
  <path class="st0" d="M47.93,3.09c0,.27.12.47.32.64.2.15.45.25.77.25s.49-.05.67-.17c.17-.12.25-.27.25-.49s-.05-.27-.15-.35c-.1-.1-.22-.15-.37-.2-.15-.05-.37-.1-.67-.15-.3-.05-.54-.12-.74-.2-.2-.07-.37-.22-.52-.37-.12-.17-.2-.4-.2-.67s.07-.49.2-.69c.12-.2.32-.35.57-.47.25-.12.52-.17.84-.17s.62.05.87.17c.25.12.45.3.59.49.15.2.22.45.25.72h-.72c-.02-.22-.12-.42-.3-.57-.17-.15-.4-.22-.67-.22s-.47.05-.62.17c-.15.12-.22.27-.22.47s.05.27.15.35c.1.07.22.15.37.2.15.05.37.1.67.15.3.05.54.12.74.2.2.07.37.22.52.37.12.17.2.4.2.67s-.07.49-.22.72c-.15.22-.35.37-.59.49-.25.12-.54.17-.87.17s-.67-.07-.94-.2c-.27-.12-.47-.3-.64-.54-.15-.22-.22-.49-.22-.79h.72l-.02.02Z"/>
  <polygon class="st0" points="51.32 .07 51.32 4.6 54.34 4.6 54.34 3.93 52.07 3.93 52.07 2.62 53.87 2.62 53.87 1.98 52.07 1.98 52.07 .74 54.27 .74 54.27 .07 51.32 .07"/>
  <path class="st0" d="M55.7,2.3h.99c.27,0,.47-.07.64-.22.15-.15.22-.35.22-.57s-.07-.42-.22-.57c-.15-.15-.37-.22-.64-.22h-.99v1.58ZM56.74.07c.32,0,.59.05.82.17.25.12.42.3.54.49.12.22.2.47.2.77s-.07.57-.25.79c-.15.22-.37.4-.64.49l.94,1.81h-.82l-.87-1.63h-1.01v1.63h-.74V.07h1.83Z"/>
  <polygon class="st0" points="61.79 .07 60.53 3.69 59.29 .07 58.5 .07 60.08 4.58 60.97 4.58 62.56 .07 61.79 .07"/>
  <rect class="st0" x="62.98" y=".07" width=".74" height="4.5"/>
  <path class="st0" d="M64.63,1.11c.17-.35.42-.62.77-.79.32-.2.72-.3,1.14-.3s.64.07.92.2c.27.12.49.32.67.54.17.25.27.52.32.82h-.74c-.07-.3-.22-.52-.42-.67-.2-.17-.47-.25-.77-.25s-.52.07-.74.2c-.2.15-.37.32-.49.57-.12.25-.17.52-.17.84s.05.59.17.84c.12.25.27.45.49.59.2.15.45.2.74.2s.57-.07.77-.25.35-.4.42-.67h.74c-.05.32-.15.59-.32.84-.17.25-.4.42-.67.54-.27.12-.57.2-.92.2s-.82-.1-1.14-.27c-.32-.2-.57-.45-.77-.79-.17-.35-.27-.74-.27-1.21s.1-.87.27-1.19"/>
  <polygon class="st0" points="69.09 .07 69.09 4.6 72.1 4.6 72.1 3.93 69.83 3.93 69.83 2.62 71.63 2.62 71.63 1.98 69.83 1.98 69.83 .74 72.03 .74 72.03 .07 69.09 .07"/>
</svg>